<svg xmlns="http://www.w3.org/2000/svg" width="280" height="70" viewBox="8 2 280 70" font-family="'PingFang SC','Microsoft YaHei','Noto Sans CJK SC',system-ui,sans-serif" font-size="14">
<rect x="8" y="2" width="280" height="70" rx="8" fill="#ffffff"/>
<rect x="20" y="30" width="16" height="30" rx="0" fill="#fbe4e1" stroke="#c0392b" stroke-width="1.6"/>
<rect x="36" y="30" width="128" height="30" rx="0" fill="#e3f2e5" stroke="#2e7d32" stroke-width="1.6"/>
<rect x="164" y="30" width="112" height="30" rx="0" fill="#e8f0fb" stroke="#3a5a8c" stroke-width="1.6"/>
<polyline points="52,55 52,60" fill="none" stroke="#2e7d32" stroke-width="0.8" stroke-linejoin="round"/>
<polyline points="68,55 68,60" fill="none" stroke="#2e7d32" stroke-width="0.8" stroke-linejoin="round"/>
<polyline points="84,55 84,60" fill="none" stroke="#2e7d32" stroke-width="0.8" stroke-linejoin="round"/>
<polyline points="100,55 100,60" fill="none" stroke="#2e7d32" stroke-width="0.8" stroke-linejoin="round"/>
<polyline points="116,55 116,60" fill="none" stroke="#2e7d32" stroke-width="0.8" stroke-linejoin="round"/>
<polyline points="132,55 132,60" fill="none" stroke="#2e7d32" stroke-width="0.8" stroke-linejoin="round"/>
<polyline points="148,55 148,60" fill="none" stroke="#2e7d32" stroke-width="0.8" stroke-linejoin="round"/>
<polyline points="180,55 180,60" fill="none" stroke="#3a5a8c" stroke-width="0.8" stroke-linejoin="round"/>
<polyline points="196,55 196,60" fill="none" stroke="#3a5a8c" stroke-width="0.8" stroke-linejoin="round"/>
<polyline points="212,55 212,60" fill="none" stroke="#3a5a8c" stroke-width="0.8" stroke-linejoin="round"/>
<polyline points="228,55 228,60" fill="none" stroke="#3a5a8c" stroke-width="0.8" stroke-linejoin="round"/>
<polyline points="244,55 244,60" fill="none" stroke="#3a5a8c" stroke-width="0.8" stroke-linejoin="round"/>
<polyline points="260,55 260,60" fill="none" stroke="#3a5a8c" stroke-width="0.8" stroke-linejoin="round"/>
<text x="28" y="49.6" text-anchor="middle" font-size="13" fill="#c0392b"><tspan font-style="italic">s</tspan></text>
<text x="28" y="24.5" text-anchor="middle" font-size="10" fill="#666">15</text>
<text x="100" y="49.6" text-anchor="middle" font-size="13" fill="#2e7d32">指数</text>
<text x="44" y="24.5" text-anchor="middle" font-size="10" fill="#666">14</text>
<text x="156" y="24.5" text-anchor="middle" font-size="10" fill="#666">7</text>
<text x="220" y="49.6" text-anchor="middle" font-size="13" fill="#3a5a8c">尾数</text>
<text x="172" y="24.5" text-anchor="middle" font-size="10" fill="#666">6</text>
<text x="268" y="24.5" text-anchor="middle" font-size="10" fill="#666">0</text>
</svg>
