<svg xmlns="http://www.w3.org/2000/svg" width="506" height="285" viewBox="52 -9 506 285" font-family="'PingFang SC','Microsoft YaHei','Noto Sans CJK SC',system-ui,sans-serif" font-size="14">
<rect x="52" y="-9" width="506" height="285" rx="8" fill="#ffffff"/>
<rect x="110" y="26" width="34" height="24" rx="0" fill="#e8f0fb" stroke="#999" stroke-width="0.8"/>
<rect x="144" y="26" width="34" height="24" rx="0" fill="#e3f2e5" stroke="#999" stroke-width="0.8"/>
<rect x="178" y="26" width="34" height="24" rx="0" fill="#fdebd3" stroke="#999" stroke-width="0.8"/>
<rect x="212" y="26" width="34" height="24" rx="0" fill="#e8f0fb" stroke="#999" stroke-width="0.8"/>
<rect x="246" y="26" width="34" height="24" rx="0" fill="#e3f2e5" stroke="#999" stroke-width="0.8"/>
<rect x="280" y="26" width="34" height="24" rx="0" fill="#fdebd3" stroke="#999" stroke-width="0.8"/>
<rect x="314" y="26" width="34" height="24" rx="0" fill="#e8f0fb" stroke="#999" stroke-width="0.8"/>
<rect x="348" y="26" width="34" height="24" rx="0" fill="#e3f2e5" stroke="#999" stroke-width="0.8"/>
<rect x="382" y="26" width="34" height="24" rx="0" fill="#fdebd3" stroke="#999" stroke-width="0.8"/>
<rect x="416" y="26" width="34" height="24" rx="0" fill="#e8f0fb" stroke="#999" stroke-width="0.8"/>
<rect x="450" y="26" width="34" height="24" rx="0" fill="#e3f2e5" stroke="#999" stroke-width="0.8"/>
<rect x="484" y="26" width="34" height="24" rx="0" fill="#fdebd3" stroke="#999" stroke-width="0.8"/>
<rect x="110" y="76" width="34" height="24" rx="0" fill="#e8f0fb" stroke="#999" stroke-width="0.8"/>
<rect x="144" y="76" width="34" height="24" rx="0" fill="#e3f2e5" stroke="#999" stroke-width="0.8"/>
<rect x="178" y="76" width="34" height="24" rx="0" fill="#fdebd3" stroke="#999" stroke-width="0.8"/>
<rect x="212" y="76" width="34" height="24" rx="0" fill="#e8f0fb" stroke="#999" stroke-width="0.8"/>
<rect x="260" y="76" width="34" height="24" rx="0" fill="#e3f2e5" stroke="#999" stroke-width="0.8"/>
<rect x="294" y="76" width="34" height="24" rx="0" fill="#fdebd3" stroke="#999" stroke-width="0.8"/>
<rect x="328" y="76" width="34" height="24" rx="0" fill="#e8f0fb" stroke="#999" stroke-width="0.8"/>
<rect x="362" y="76" width="34" height="24" rx="0" fill="#e3f2e5" stroke="#999" stroke-width="0.8"/>
<rect x="410" y="76" width="34" height="24" rx="0" fill="#fdebd3" stroke="#999" stroke-width="0.8"/>
<rect x="444" y="76" width="34" height="24" rx="0" fill="#e8f0fb" stroke="#999" stroke-width="0.8"/>
<rect x="478" y="76" width="34" height="24" rx="0" fill="#e3f2e5" stroke="#999" stroke-width="0.8"/>
<rect x="512" y="76" width="34" height="24" rx="0" fill="#fdebd3" stroke="#999" stroke-width="0.8"/>
<rect x="110" y="166" width="34" height="24" rx="0" fill="#e8f0fb" stroke="#999" stroke-width="0.8"/>
<rect x="144" y="166" width="34" height="24" rx="0" fill="#e8f0fb" stroke="#999" stroke-width="0.8"/>
<rect x="178" y="166" width="34" height="24" rx="0" fill="#e8f0fb" stroke="#999" stroke-width="0.8"/>
<rect x="212" y="166" width="34" height="24" rx="0" fill="#e8f0fb" stroke="#999" stroke-width="0.8"/>
<rect x="246" y="166" width="34" height="24" rx="0" fill="#e3f2e5" stroke="#999" stroke-width="0.8"/>
<rect x="280" y="166" width="34" height="24" rx="0" fill="#e3f2e5" stroke="#999" stroke-width="0.8"/>
<rect x="314" y="166" width="34" height="24" rx="0" fill="#e3f2e5" stroke="#999" stroke-width="0.8"/>
<rect x="348" y="166" width="34" height="24" rx="0" fill="#e3f2e5" stroke="#999" stroke-width="0.8"/>
<rect x="382" y="166" width="34" height="24" rx="0" fill="#fdebd3" stroke="#999" stroke-width="0.8"/>
<rect x="416" y="166" width="34" height="24" rx="0" fill="#fdebd3" stroke="#999" stroke-width="0.8"/>
<rect x="450" y="166" width="34" height="24" rx="0" fill="#fdebd3" stroke="#999" stroke-width="0.8"/>
<rect x="484" y="166" width="34" height="24" rx="0" fill="#fdebd3" stroke="#999" stroke-width="0.8"/>
<rect x="110" y="216" width="34" height="24" rx="0" fill="#e8f0fb" stroke="#999" stroke-width="0.8"/>
<rect x="144" y="216" width="34" height="24" rx="0" fill="#e8f0fb" stroke="#999" stroke-width="0.8"/>
<rect x="178" y="216" width="34" height="24" rx="0" fill="#e8f0fb" stroke="#999" stroke-width="0.8"/>
<rect x="212" y="216" width="34" height="24" rx="0" fill="#e8f0fb" stroke="#999" stroke-width="0.8"/>
<rect x="260" y="216" width="34" height="24" rx="0" fill="#e3f2e5" stroke="#999" stroke-width="0.8"/>
<rect x="294" y="216" width="34" height="24" rx="0" fill="#e3f2e5" stroke="#999" stroke-width="0.8"/>
<rect x="328" y="216" width="34" height="24" rx="0" fill="#e3f2e5" stroke="#999" stroke-width="0.8"/>
<rect x="362" y="216" width="34" height="24" rx="0" fill="#e3f2e5" stroke="#999" stroke-width="0.8"/>
<rect x="410" y="216" width="34" height="24" rx="0" fill="#fdebd3" stroke="#999" stroke-width="0.8"/>
<rect x="444" y="216" width="34" height="24" rx="0" fill="#fdebd3" stroke="#999" stroke-width="0.8"/>
<rect x="478" y="216" width="34" height="24" rx="0" fill="#fdebd3" stroke="#999" stroke-width="0.8"/>
<rect x="512" y="216" width="34" height="24" rx="0" fill="#fdebd3" stroke="#999" stroke-width="0.8"/>
<text x="110" y="16.6" text-anchor="start" font-size="13" fill="#222">按点存放（结构的数组）</text>
<text x="127" y="42.2" text-anchor="middle" font-size="12" fill="#3a5a8c"><tspan font-style="italic">x</tspan><tspan dy="3.6" font-size="8.6">0</tspan></text>
<text x="161" y="42.2" text-anchor="middle" font-size="12" fill="#2e7d32"><tspan font-style="italic">y</tspan><tspan dy="3.6" font-size="8.6">0</tspan></text>
<text x="195" y="42.2" text-anchor="middle" font-size="12" fill="#b45f06"><tspan font-style="italic">z</tspan><tspan dy="3.6" font-size="8.6">0</tspan></text>
<text x="229" y="42.2" text-anchor="middle" font-size="12" fill="#3a5a8c"><tspan font-style="italic">x</tspan><tspan dy="3.6" font-size="8.6">1</tspan></text>
<text x="263" y="42.2" text-anchor="middle" font-size="12" fill="#2e7d32"><tspan font-style="italic">y</tspan><tspan dy="3.6" font-size="8.6">1</tspan></text>
<text x="297" y="42.2" text-anchor="middle" font-size="12" fill="#b45f06"><tspan font-style="italic">z</tspan><tspan dy="3.6" font-size="8.6">1</tspan></text>
<text x="331" y="42.2" text-anchor="middle" font-size="12" fill="#3a5a8c"><tspan font-style="italic">x</tspan><tspan dy="3.6" font-size="8.6">2</tspan></text>
<text x="365" y="42.2" text-anchor="middle" font-size="12" fill="#2e7d32"><tspan font-style="italic">y</tspan><tspan dy="3.6" font-size="8.6">2</tspan></text>
<text x="399" y="42.2" text-anchor="middle" font-size="12" fill="#b45f06"><tspan font-style="italic">z</tspan><tspan dy="3.6" font-size="8.6">2</tspan></text>
<text x="433" y="42.2" text-anchor="middle" font-size="12" fill="#3a5a8c"><tspan font-style="italic">x</tspan><tspan dy="3.6" font-size="8.6">3</tspan></text>
<text x="467" y="42.2" text-anchor="middle" font-size="12" fill="#2e7d32"><tspan font-style="italic">y</tspan><tspan dy="3.6" font-size="8.6">3</tspan></text>
<text x="501" y="42.2" text-anchor="middle" font-size="12" fill="#b45f06"><tspan font-style="italic">z</tspan><tspan dy="3.6" font-size="8.6">3</tspan></text>
<text x="100" y="42.2" text-anchor="end" font-size="12" fill="#222">存储</text>
<text x="127" y="92.2" text-anchor="middle" font-size="12" fill="#3a5a8c"><tspan font-style="italic">x</tspan><tspan dy="3.6" font-size="8.6">0</tspan></text>
<text x="161" y="92.2" text-anchor="middle" font-size="12" fill="#2e7d32"><tspan font-style="italic">y</tspan><tspan dy="3.6" font-size="8.6">0</tspan></text>
<text x="195" y="92.2" text-anchor="middle" font-size="12" fill="#b45f06"><tspan font-style="italic">z</tspan><tspan dy="3.6" font-size="8.6">0</tspan></text>
<text x="229" y="92.2" text-anchor="middle" font-size="12" fill="#3a5a8c"><tspan font-style="italic">x</tspan><tspan dy="3.6" font-size="8.6">1</tspan></text>
<text x="100" y="92.2" text-anchor="end" font-size="12" fill="#222">寄存器</text>
<text x="277" y="92.2" text-anchor="middle" font-size="12" fill="#2e7d32"><tspan font-style="italic">y</tspan><tspan dy="3.6" font-size="8.6">1</tspan></text>
<text x="311" y="92.2" text-anchor="middle" font-size="12" fill="#b45f06"><tspan font-style="italic">z</tspan><tspan dy="3.6" font-size="8.6">1</tspan></text>
<text x="345" y="92.2" text-anchor="middle" font-size="12" fill="#3a5a8c"><tspan font-style="italic">x</tspan><tspan dy="3.6" font-size="8.6">2</tspan></text>
<text x="379" y="92.2" text-anchor="middle" font-size="12" fill="#2e7d32"><tspan font-style="italic">y</tspan><tspan dy="3.6" font-size="8.6">2</tspan></text>
<text x="427" y="92.2" text-anchor="middle" font-size="12" fill="#b45f06"><tspan font-style="italic">z</tspan><tspan dy="3.6" font-size="8.6">2</tspan></text>
<text x="461" y="92.2" text-anchor="middle" font-size="12" fill="#3a5a8c"><tspan font-style="italic">x</tspan><tspan dy="3.6" font-size="8.6">3</tspan></text>
<text x="495" y="92.2" text-anchor="middle" font-size="12" fill="#2e7d32"><tspan font-style="italic">y</tspan><tspan dy="3.6" font-size="8.6">3</tspan></text>
<text x="529" y="92.2" text-anchor="middle" font-size="12" fill="#b45f06"><tspan font-style="italic">z</tspan><tspan dy="3.6" font-size="8.6">3</tspan></text>
<text x="110" y="120.2" text-anchor="start" font-size="12" fill="#666">每个寄存器里混着 <tspan font-style="italic">x</tspan>, <tspan font-style="italic">y</tspan>, <tspan font-style="italic">z</tspan>，要先重新排列</text>
<text x="110" y="156.6" text-anchor="start" font-size="13" fill="#222">按分量存放（数组的结构）</text>
<text x="127" y="182.2" text-anchor="middle" font-size="12" fill="#3a5a8c"><tspan font-style="italic">x</tspan><tspan dy="3.6" font-size="8.6">0</tspan></text>
<text x="161" y="182.2" text-anchor="middle" font-size="12" fill="#3a5a8c"><tspan font-style="italic">x</tspan><tspan dy="3.6" font-size="8.6">1</tspan></text>
<text x="195" y="182.2" text-anchor="middle" font-size="12" fill="#3a5a8c"><tspan font-style="italic">x</tspan><tspan dy="3.6" font-size="8.6">2</tspan></text>
<text x="229" y="182.2" text-anchor="middle" font-size="12" fill="#3a5a8c"><tspan font-style="italic">x</tspan><tspan dy="3.6" font-size="8.6">3</tspan></text>
<text x="263" y="182.2" text-anchor="middle" font-size="12" fill="#2e7d32"><tspan font-style="italic">y</tspan><tspan dy="3.6" font-size="8.6">0</tspan></text>
<text x="297" y="182.2" text-anchor="middle" font-size="12" fill="#2e7d32"><tspan font-style="italic">y</tspan><tspan dy="3.6" font-size="8.6">1</tspan></text>
<text x="331" y="182.2" text-anchor="middle" font-size="12" fill="#2e7d32"><tspan font-style="italic">y</tspan><tspan dy="3.6" font-size="8.6">2</tspan></text>
<text x="365" y="182.2" text-anchor="middle" font-size="12" fill="#2e7d32"><tspan font-style="italic">y</tspan><tspan dy="3.6" font-size="8.6">3</tspan></text>
<text x="399" y="182.2" text-anchor="middle" font-size="12" fill="#b45f06"><tspan font-style="italic">z</tspan><tspan dy="3.6" font-size="8.6">0</tspan></text>
<text x="433" y="182.2" text-anchor="middle" font-size="12" fill="#b45f06"><tspan font-style="italic">z</tspan><tspan dy="3.6" font-size="8.6">1</tspan></text>
<text x="467" y="182.2" text-anchor="middle" font-size="12" fill="#b45f06"><tspan font-style="italic">z</tspan><tspan dy="3.6" font-size="8.6">2</tspan></text>
<text x="501" y="182.2" text-anchor="middle" font-size="12" fill="#b45f06"><tspan font-style="italic">z</tspan><tspan dy="3.6" font-size="8.6">3</tspan></text>
<text x="100" y="182.2" text-anchor="end" font-size="12" fill="#222">存储</text>
<text x="127" y="232.2" text-anchor="middle" font-size="12" fill="#3a5a8c"><tspan font-style="italic">x</tspan><tspan dy="3.6" font-size="8.6">0</tspan></text>
<text x="161" y="232.2" text-anchor="middle" font-size="12" fill="#3a5a8c"><tspan font-style="italic">x</tspan><tspan dy="3.6" font-size="8.6">1</tspan></text>
<text x="195" y="232.2" text-anchor="middle" font-size="12" fill="#3a5a8c"><tspan font-style="italic">x</tspan><tspan dy="3.6" font-size="8.6">2</tspan></text>
<text x="229" y="232.2" text-anchor="middle" font-size="12" fill="#3a5a8c"><tspan font-style="italic">x</tspan><tspan dy="3.6" font-size="8.6">3</tspan></text>
<text x="100" y="232.2" text-anchor="end" font-size="12" fill="#222">寄存器</text>
<text x="277" y="232.2" text-anchor="middle" font-size="12" fill="#2e7d32"><tspan font-style="italic">y</tspan><tspan dy="3.6" font-size="8.6">0</tspan></text>
<text x="311" y="232.2" text-anchor="middle" font-size="12" fill="#2e7d32"><tspan font-style="italic">y</tspan><tspan dy="3.6" font-size="8.6">1</tspan></text>
<text x="345" y="232.2" text-anchor="middle" font-size="12" fill="#2e7d32"><tspan font-style="italic">y</tspan><tspan dy="3.6" font-size="8.6">2</tspan></text>
<text x="379" y="232.2" text-anchor="middle" font-size="12" fill="#2e7d32"><tspan font-style="italic">y</tspan><tspan dy="3.6" font-size="8.6">3</tspan></text>
<text x="427" y="232.2" text-anchor="middle" font-size="12" fill="#b45f06"><tspan font-style="italic">z</tspan><tspan dy="3.6" font-size="8.6">0</tspan></text>
<text x="461" y="232.2" text-anchor="middle" font-size="12" fill="#b45f06"><tspan font-style="italic">z</tspan><tspan dy="3.6" font-size="8.6">1</tspan></text>
<text x="495" y="232.2" text-anchor="middle" font-size="12" fill="#b45f06"><tspan font-style="italic">z</tspan><tspan dy="3.6" font-size="8.6">2</tspan></text>
<text x="529" y="232.2" text-anchor="middle" font-size="12" fill="#b45f06"><tspan font-style="italic">z</tspan><tspan dy="3.6" font-size="8.6">3</tspan></text>
<text x="253" y="233.6" text-anchor="middle" font-size="16" fill="#222">+</text>
<text x="403" y="233.6" text-anchor="middle" font-size="16" fill="#222">+</text>
<text x="110" y="260.2" text-anchor="start" font-size="12" fill="#666">逐通道相加：两条向量加法算出 4 个点的 <tspan font-style="italic">x</tspan> + <tspan font-style="italic">y</tspan> + <tspan font-style="italic">z</tspan></text>
</svg>
