<svg xmlns="http://www.w3.org/2000/svg" width="653" height="270" viewBox="39 40 653 270" font-family="'PingFang SC','Microsoft YaHei','Noto Sans CJK SC',system-ui,sans-serif" font-size="14">
<rect x="39" y="40" width="653" height="270" rx="8" fill="#ffffff"/>
<rect x="80" y="70" width="120" height="52" rx="0" fill="#fdebd3" stroke="#999" stroke-width="0.8"/>
<rect x="200" y="70" width="120" height="52" rx="0" fill="#e3f2e5" stroke="#999" stroke-width="0.8"/>
<rect x="320" y="70" width="120" height="52" rx="0" fill="#e8f0fb" stroke="#999" stroke-width="0.8"/>
<rect x="440" y="70" width="120" height="52" rx="0" fill="#fff" stroke="#999" stroke-width="0.8"/>
<rect x="560" y="70" width="120" height="52" rx="0" fill="#fff" stroke="#999" stroke-width="0.8"/>
<rect x="80" y="122" width="120" height="52" rx="0" fill="#fdebd3" stroke="#999" stroke-width="0.8"/>
<rect x="200" y="122" width="120" height="52" rx="0" fill="#fff" stroke="#999" stroke-width="0.8"/>
<rect x="320" y="122" width="120" height="52" rx="0" fill="#fff" stroke="#999" stroke-width="0.8"/>
<rect x="440" y="122" width="120" height="52" rx="0" fill="#efe6f8" stroke="#999" stroke-width="0.8"/>
<rect x="560" y="122" width="120" height="52" rx="0" fill="#fff" stroke="#999" stroke-width="0.8"/>
<rect x="80" y="174" width="120" height="52" rx="0" fill="#fff" stroke="#999" stroke-width="0.8"/>
<rect x="200" y="174" width="120" height="52" rx="0" fill="#e3f2e5" stroke="#999" stroke-width="0.8"/>
<rect x="320" y="174" width="120" height="52" rx="0" fill="#fff" stroke="#999" stroke-width="0.8"/>
<rect x="440" y="174" width="120" height="52" rx="0" fill="#fff" stroke="#999" stroke-width="0.8"/>
<rect x="560" y="174" width="120" height="52" rx="0" fill="#efe6f8" stroke="#999" stroke-width="0.8"/>
<text x="140" y="100.2" text-anchor="middle" font-size="12" fill="#b45f06">地址加法</text>
<text x="260" y="100.2" text-anchor="middle" font-size="12" fill="#2e7d32">独立加法</text>
<text x="380" y="100.2" text-anchor="middle" font-size="12" fill="#3a5a8c">读 R₀</text>
<text x="140" y="152.2" text-anchor="middle" font-size="12" fill="#b45f06">循环计数</text>
<text x="500" y="152.2" text-anchor="middle" font-size="12" fill="#6a3d9a">乘 R₀</text>
<text x="260" y="204.2" text-anchor="middle" font-size="12" fill="#2e7d32">消费旧结果</text>
<text x="620" y="204.2" text-anchor="middle" font-size="12" fill="#6a3d9a">取早先结果</text>
<text x="74" y="100.2" text-anchor="end" font-size="12" fill="#666">拍 0</text>
<text x="74" y="152.2" text-anchor="end" font-size="12" fill="#666">拍 1</text>
<text x="74" y="204.2" text-anchor="end" font-size="12" fill="#666">拍 2</text>
<text x="140" y="64.2" text-anchor="middle" font-size="12" fill="#666">标量</text>
<text x="260" y="64.2" text-anchor="middle" font-size="12" fill="#666">向量 ALU</text>
<text x="380" y="64.2" text-anchor="middle" font-size="12" fill="#666">向量读</text>
<text x="500" y="64.2" text-anchor="middle" font-size="12" fill="#666">MXU 提交</text>
<text x="620" y="64.2" text-anchor="middle" font-size="12" fill="#666">结果取回</text>
<text x="80" y="294.2" text-anchor="start" font-size="12" fill="#666">槽并排不保证结果同时完成；此图是资源示意，不是真实汇编</text>
</svg>
