<svg xmlns="http://www.w3.org/2000/svg" width="585" height="327" viewBox="65 23 585 327" font-family="'PingFang SC','Microsoft YaHei','Noto Sans CJK SC',system-ui,sans-serif" font-size="14">
<defs><marker id="ah-666-10" viewBox="0 0 10 10" refX="9" refY="5" markerUnits="userSpaceOnUse" markerWidth="10" markerHeight="10" orient="auto-start-reverse"><path d="M0,0 L10,5 L0,10 z" fill="#666"/></marker></defs>
<rect x="65" y="23" width="585" height="327" rx="8" fill="#ffffff"/>
<rect x="160" y="35" width="72" height="30" rx="3" fill="#efefef" stroke="#555555" stroke-width="1.6"/>
<rect x="232" y="75" width="288" height="30" rx="3" fill="#e8f0fb" stroke="#3a5a8c" stroke-width="1.6"/>
<rect x="304" y="115" width="144" height="30" rx="3" fill="#fdebd3" stroke="#b45f06" stroke-width="1.6"/>
<rect x="520" y="155" width="72" height="30" rx="3" fill="#e3f2e5" stroke="#2e7d32" stroke-width="1.6"/>
<polyline points="160,195 610,195" fill="none" stroke="#666" stroke-width="1.6" stroke-linejoin="round" marker-end="url(#ah-666-10)"/>
<polyline points="160,192 160,198" fill="none" stroke="#666" stroke-width="1.6" stroke-linejoin="round"/>
<text x="150" y="54.6" text-anchor="end" font-size="13" fill="#222">主机提交</text>
<text x="150" y="94.6" text-anchor="end" font-size="13" fill="#222">设备程序</text>
<text x="150" y="134.6" text-anchor="end" font-size="13" fill="#222">kernel 内部</text>
<text x="150" y="174.6" text-anchor="end" font-size="13" fill="#222">结果通知</text>
<text x="196" y="54.6" text-anchor="middle" font-size="13" fill="#555555">提交</text>
<text x="376" y="94.6" text-anchor="middle" font-size="13" fill="#3a5a8c">前导、kernel、尾声</text>
<text x="376" y="134.6" text-anchor="middle" font-size="13" fill="#b45f06">关注的片段</text>
<text x="556" y="174.6" text-anchor="middle" font-size="13" fill="#2e7d32">结果就绪</text>
<text x="160" y="212.2" text-anchor="middle" font-size="12" fill="#666">0</text>
<text x="614" y="199.2" text-anchor="start" font-size="12" fill="#666">时间</text>
<text x="365" y="334.2" text-anchor="middle" font-size="12" fill="#666">四个区间有不同的起止事件；图中数字只是边界示意</text>
</svg>
